<svg width="32" height="32" viewBox="0 0 32 32" fill="none" xmlns="http://www.w3.org/2000/svg">
<path d="M16.3548 7.036C16.318 7.0376 16.2818 7.04464 16.2469 7.05632C12.329 7.10296 8.75094 9.71968 7.68913 13.6813C6.42447 18.4011 9.21021 23.2494 13.8891 24.5907C13.9294 24.6208 13.975 24.6431 14.0235 24.6563C14.0243 24.6568 14.0259 24.6571 14.0267 24.6579C18.0323 25.7312 22.1474 23.9018 24.122 20.4595C24.3207 20.1124 23.9434 19.7207 23.5892 19.9063C22.0817 20.6994 20.2893 20.9502 18.5173 20.4767C18.5149 20.4761 18.5133 20.4758 18.5109 20.475C14.7715 19.473 12.5511 15.627 13.5531 11.8875C14.0281 10.1153 15.1423 8.68649 16.5828 7.7766C16.5844 7.77582 16.5844 7.77421 16.586 7.77341C16.7163 7.69143 16.788 7.54196 16.7704 7.38903C16.7466 7.18779 16.5761 7.03611 16.3735 7.03591C16.3671 7.03576 16.361 7.03586 16.3548 7.036Z" fill="#6F6F6F"/>
<path fill-rule="evenodd" clip-rule="evenodd" d="M23.6089 8.02282C23.388 8.02602 23.2117 8.20815 23.2151 8.42907V12.1585C23.2075 12.6994 24.0228 12.6994 24.0151 12.1585V8.42907C24.0187 8.20325 23.8347 8.01928 23.6089 8.02282Z" fill="#6F6F6F"/>
<path fill-rule="evenodd" clip-rule="evenodd" d="M25.4624 10.2872C25.4592 10.0663 25.2771 9.89 25.0562 9.89346H22.1735C21.6325 9.88546 21.6325 10.7011 22.1735 10.6935H25.0562C25.282 10.6967 25.466 10.513 25.4624 10.2872Z" fill="#6F6F6F"/>
<path fill-rule="evenodd" clip-rule="evenodd" d="M19.6426 12.9304C19.4217 12.9336 19.2454 13.1157 19.2489 13.3366V16.6427C19.2412 17.1836 20.0565 17.1836 20.0489 16.6427V13.3366C20.0524 13.1108 19.8685 12.9268 19.6426 12.9304Z" fill="#6F6F6F"/>
<path fill-rule="evenodd" clip-rule="evenodd" d="M21.2845 14.9831C21.2813 14.7622 21.0992 14.5859 20.8783 14.5893H18.4189C17.878 14.5813 17.878 15.397 18.4189 15.3893H20.8783C21.1041 15.3925 21.288 15.2089 21.2845 14.9831Z" fill="#6F6F6F"/>
<path d="M15.5081 7.036C15.4714 7.0376 15.4351 7.04464 15.4003 7.05632C11.4824 7.10296 7.90426 9.71968 6.84245 13.6813C5.57779 18.4011 8.36353 23.2494 13.0425 24.5907C13.0827 24.6208 13.1283 24.6431 13.1768 24.6563C13.1776 24.6568 13.1792 24.6571 13.18 24.6579C17.1856 25.7312 21.3007 23.9018 23.2753 20.4595C23.4741 20.1124 23.0968 19.7207 22.7425 19.9063C21.235 20.6994 19.4426 20.9502 17.6707 20.4767C17.6683 20.4761 17.6666 20.4758 17.6642 20.475C13.9248 19.473 11.7045 15.627 12.7064 11.8875C13.1814 10.1153 14.2956 8.68649 15.7361 7.7766C15.7377 7.77582 15.7377 7.77421 15.7393 7.77341C15.8696 7.69143 15.9413 7.54196 15.9237 7.38903C15.8999 7.18779 15.7295 7.03611 15.5268 7.03591C15.5204 7.03576 15.5143 7.03586 15.5081 7.036Z" fill="#FFCF60"/>
<path fill-rule="evenodd" clip-rule="evenodd" d="M22.7622 8.02282C22.5413 8.02602 22.365 8.20815 22.3685 8.42907V12.1585C22.3608 12.6994 23.1761 12.6994 23.1685 12.1585V8.42907C23.172 8.20325 22.988 8.01928 22.7622 8.02282Z" fill="#FFCF60"/>
<path fill-rule="evenodd" clip-rule="evenodd" d="M24.6157 10.2872C24.6125 10.0663 24.4304 9.89 24.2095 9.89346H21.3268C20.7858 9.88546 20.7858 10.7011 21.3268 10.6935H24.2095C24.4353 10.6967 24.6193 10.513 24.6157 10.2872Z" fill="#FFCF60"/>
<path fill-rule="evenodd" clip-rule="evenodd" d="M18.796 12.9304C18.575 12.9336 18.3988 13.1157 18.4022 13.3366V16.6427C18.3945 17.1836 19.2099 17.1836 19.2022 16.6427V13.3366C19.2057 13.1108 19.0218 12.9268 18.796 12.9304Z" fill="#FFCF60"/>
<path fill-rule="evenodd" clip-rule="evenodd" d="M20.4378 14.9831C20.4346 14.7622 20.2525 14.5859 20.0316 14.5893H17.5722C17.0313 14.5813 17.0313 15.397 17.5722 15.3893H20.0316C20.2574 15.3925 20.4414 15.2089 20.4378 14.9831Z" fill="#FFCF60"/>
</svg>
