<svg width="32" height="32" viewBox="0 0 32 32" fill="none" xmlns="http://www.w3.org/2000/svg">
<g clip-path="url(#clip0_1_47)">
<path d="M11.7909 7.58173C11.7909 4.71987 7.58172 0 7.58172 0C7.58172 0 3.37259 4.71106 3.37259 7.58173C3.37259 9.77435 4.71986 11.7909 7.58172 11.7909C10.4436 11.7909 11.7909 9.60705 11.7909 7.58173ZM7.57292 10.109C6.39295 10.109 5.04568 9.60705 5.04568 7.58173C5.04568 5.89984 7.57292 2.69455 7.57292 2.69455C7.57292 2.69455 10.1002 5.89103 10.1002 7.58173C10.1002 9.60705 8.75289 10.109 7.57292 10.109Z" fill="#F5F5F5"/>
<path d="M24.4183 6.74518C24.4183 6.74518 20.2091 11.4562 20.2091 14.3269C20.2091 16.5195 21.5564 18.536 24.4183 18.536C27.2801 18.536 28.6274 16.3435 28.6274 14.3269C28.6274 11.4562 24.4183 6.74518 24.4183 6.74518ZM24.4183 16.8453C23.2383 16.8453 21.891 16.3435 21.891 14.3181C21.891 12.6362 24.4183 9.43092 24.4183 9.43092C24.4183 9.43092 26.9455 12.6274 26.9455 14.3181C26.9455 16.3435 25.5982 16.8453 24.4183 16.8453Z" fill="#F5F5F5"/>
<path d="M8.41827 27.791C8.41827 29.9835 9.76555 32.0001 12.6274 32.0001C15.4893 32.0001 16.8365 29.8075 16.8365 27.791C16.8365 24.9291 12.6274 20.2091 12.6274 20.2091C12.6274 20.2091 8.41827 24.9291 8.41827 27.791ZM12.6274 30.3181C11.4474 30.3181 10.1002 29.8163 10.1002 27.791C10.1002 26.109 12.6274 22.9038 12.6274 22.9038C12.6274 22.9038 15.1547 26.1003 15.1547 27.791C15.1547 29.8163 13.8074 30.3181 12.6274 30.3181Z" fill="#F5F5F5"/>
</g>
<defs>
<clipPath id="clip0_1_47">
<rect width="32" height="32" fill="white"/>
</clipPath>
</defs>
</svg>
