<svg width="32" height="32" viewBox="0 0 32 32" fill="none" xmlns="http://www.w3.org/2000/svg">
<path fill-rule="evenodd" clip-rule="evenodd" d="M16.0754 23.9816C15.9696 23.9832 15.8688 24.0267 15.795 24.1026C15.7212 24.1784 15.6804 24.2804 15.6817 24.3863V26.8472C15.6809 26.9002 15.6907 26.9528 15.7105 27.002C15.7303 27.0512 15.7596 27.096 15.7968 27.1337C15.834 27.1714 15.8784 27.2014 15.9273 27.2219C15.9762 27.2423 16.0287 27.2529 16.0817 27.2529C16.1347 27.2529 16.1872 27.2423 16.2361 27.2219C16.285 27.2014 16.3293 27.1714 16.3665 27.1337C16.4038 27.096 16.4331 27.0512 16.4529 27.002C16.4726 26.9528 16.4824 26.9002 16.4817 26.8472V24.3863C16.4823 24.3328 16.4722 24.2798 16.452 24.2303C16.4318 24.1808 16.4019 24.1359 16.364 24.0981C16.3261 24.0604 16.2811 24.0307 16.2315 24.0106C16.1819 23.9906 16.1289 23.9807 16.0754 23.9816Z" fill="#6F6F6F"/>
<path fill-rule="evenodd" clip-rule="evenodd" d="M16.0754 4.74718C16.0229 4.748 15.9711 4.75916 15.9229 4.78002C15.8746 4.80088 15.831 4.83103 15.7944 4.86875C15.7579 4.90647 15.7291 4.95103 15.7097 4.99988C15.6904 5.04872 15.6809 5.1009 15.6817 5.15343V7.61281C15.6809 7.66581 15.6907 7.71844 15.7105 7.76763C15.7303 7.81681 15.7596 7.86158 15.7968 7.89933C15.834 7.93708 15.8784 7.96705 15.9273 7.98751C15.9762 8.00797 16.0287 8.01851 16.0817 8.01851C16.1347 8.01851 16.1872 8.00797 16.2361 7.98751C16.285 7.96705 16.3293 7.93708 16.3666 7.89933C16.4038 7.86158 16.4331 7.81681 16.4529 7.76763C16.4726 7.71844 16.4824 7.66581 16.4817 7.61281V5.15343C16.4825 5.09985 16.4726 5.04665 16.4525 4.99699C16.4323 4.94732 16.4025 4.90219 16.3646 4.86429C16.3267 4.8264 16.2816 4.79651 16.2319 4.77639C16.1822 4.75627 16.129 4.74634 16.0754 4.74718Z" fill="#6F6F6F"/>
<path d="M21.8567 16.0003C21.8567 12.8153 19.2667 10.2253 16.0817 10.2253C12.8968 10.2253 10.3052 12.8153 10.3052 16.0003C10.3052 19.1853 12.8968 21.7753 16.0817 21.7753C19.2667 21.7753 21.8567 19.1853 21.8567 16.0003ZM21.0567 16.0003C21.0567 18.7529 18.8344 20.9753 16.0817 20.9753C13.3291 20.9753 11.1052 18.7529 11.1052 16.0003C11.1052 13.2477 13.3291 11.0253 16.0817 11.0253C18.8344 11.0253 21.0567 13.2477 21.0567 16.0003Z" fill="#6F6F6F"/>
<path fill-rule="evenodd" clip-rule="evenodd" d="M5.23479 15.6003C5.18179 15.5996 5.12917 15.6093 5.07998 15.6291C5.03079 15.6489 4.98601 15.6782 4.94827 15.7154C4.91052 15.7527 4.88055 15.797 4.8601 15.8459C4.83964 15.8948 4.8291 15.9473 4.8291 16.0003C4.8291 16.0533 4.83964 16.1058 4.8601 16.1547C4.88055 16.2036 4.91052 16.248 4.94827 16.2852C4.98601 16.3224 5.03079 16.3517 5.07998 16.3715C5.12917 16.3913 5.18179 16.4011 5.23479 16.4003H7.69416C7.74717 16.4011 7.79979 16.3913 7.84897 16.3715C7.89816 16.3517 7.94293 16.3224 7.98068 16.2852C8.01842 16.248 8.0484 16.2036 8.06886 16.1547C8.08932 16.1058 8.09985 16.0533 8.09985 16.0003C8.09985 15.9473 8.08932 15.8948 8.06886 15.8459C8.0484 15.797 8.01842 15.7527 7.98068 15.7154C7.94293 15.6782 7.89816 15.6489 7.84897 15.6291C7.79979 15.6093 7.74717 15.5996 7.69416 15.6003H5.23479Z" fill="#6F6F6F"/>
<path fill-rule="evenodd" clip-rule="evenodd" d="M24.4677 15.6003C24.4147 15.5996 24.3621 15.6093 24.3129 15.6291C24.2637 15.6489 24.2189 15.6782 24.1812 15.7154C24.1434 15.7527 24.1135 15.797 24.093 15.8459C24.0725 15.8948 24.062 15.9473 24.062 16.0003C24.062 16.0533 24.0725 16.1058 24.093 16.1547C24.1135 16.2036 24.1434 16.248 24.1812 16.2852C24.2189 16.3224 24.2637 16.3517 24.3129 16.3715C24.3621 16.3913 24.4147 16.4011 24.4677 16.4003H26.9286C26.9816 16.4011 27.0343 16.3913 27.0834 16.3715C27.1326 16.3517 27.1774 16.3224 27.2152 16.2852C27.2529 16.248 27.2829 16.2036 27.3033 16.1547C27.3238 16.1058 27.3343 16.0533 27.3343 16.0003C27.3343 15.9473 27.3238 15.8948 27.3033 15.8459C27.2829 15.797 27.2529 15.7527 27.2152 15.7154C27.1774 15.6782 27.1326 15.6489 27.0834 15.6291C27.0343 15.6093 26.9816 15.5996 26.9286 15.6003H24.4677Z" fill="#6F6F6F"/>
<path fill-rule="evenodd" clip-rule="evenodd" d="M10.1427 21.5269C10.0389 21.5298 9.94026 21.5729 9.86768 21.6472L8.12862 23.3878C8.09023 23.4247 8.05957 23.4688 8.03845 23.5177C8.01733 23.5665 8.00618 23.6191 8.00564 23.6723C8.00509 23.7255 8.01517 23.7783 8.03529 23.8276C8.0554 23.8769 8.08515 23.9216 8.12279 23.9593C8.16042 23.9969 8.20518 24.0267 8.25445 24.0468C8.30373 24.0669 8.35652 24.077 8.40974 24.0764C8.46296 24.0759 8.51554 24.0647 8.56439 24.0436C8.61324 24.0225 8.65739 23.9918 8.69425 23.9534L10.4333 22.2128C10.4908 22.1566 10.5301 22.0843 10.5459 22.0054C10.5617 21.9266 10.5534 21.8448 10.522 21.7707C10.4906 21.6966 10.4376 21.6338 10.37 21.5903C10.3023 21.5468 10.2231 21.5247 10.1427 21.5269Z" fill="#6F6F6F"/>
<path fill-rule="evenodd" clip-rule="evenodd" d="M23.7441 7.92688C23.6403 7.92977 23.5417 7.97291 23.4691 8.04719L21.7285 9.78625C21.6901 9.82311 21.6594 9.86726 21.6383 9.91611C21.6172 9.96496 21.606 10.0175 21.6055 10.0708C21.6049 10.124 21.615 10.1768 21.6352 10.226C21.6553 10.2753 21.685 10.3201 21.7227 10.3577C21.7603 10.3953 21.805 10.4251 21.8543 10.4452C21.9036 10.4653 21.9564 10.4754 22.0096 10.4749C22.0628 10.4743 22.1154 10.4632 22.1643 10.442C22.2131 10.4209 22.2573 10.3903 22.2941 10.3519L24.0347 8.61282C24.0923 8.55658 24.1315 8.48431 24.1473 8.40544C24.1631 8.32657 24.1548 8.24477 24.1234 8.1707C24.0921 8.09663 24.0391 8.03374 23.9714 7.99024C23.9037 7.94675 23.8245 7.92467 23.7441 7.92688Z" fill="#6F6F6F"/>
<path d="M20.1652 20.0846C22.4173 17.8324 22.4184 14.1685 20.166 11.9164C17.9138 9.66425 14.2488 9.66425 11.9967 11.9164C9.74456 14.1685 9.74567 17.8324 11.9975 20.0846C14.2496 22.3367 17.9131 22.3367 20.1652 20.0846Z" fill="#6F6F6F"/>
<path fill-rule="evenodd" clip-rule="evenodd" d="M8.40655 7.92531C8.32688 7.92532 8.24903 7.94912 8.18297 7.99367C8.11691 8.03821 8.06567 8.10146 8.03579 8.17532C8.00591 8.24918 7.99876 8.33027 8.01527 8.40822C8.03177 8.48616 8.07118 8.5574 8.12843 8.61281L9.86749 10.3519C9.90435 10.3903 9.9485 10.4209 9.99735 10.442C10.0462 10.4631 10.0988 10.4743 10.152 10.4749C10.2052 10.4754 10.258 10.4653 10.3073 10.4452C10.3565 10.4251 10.4013 10.3953 10.439 10.3577C10.4766 10.3201 10.5063 10.2753 10.5264 10.226C10.5466 10.1768 10.5566 10.124 10.5561 10.0707C10.5556 10.0175 10.5444 9.96496 10.5233 9.9161C10.5022 9.86725 10.4715 9.8231 10.4331 9.78625L8.69405 8.04718C8.65675 8.00863 8.61207 7.97797 8.56268 7.95703C8.51329 7.9361 8.4602 7.92531 8.40655 7.92531Z" fill="#6F6F6F"/>
<path fill-rule="evenodd" clip-rule="evenodd" d="M22.0083 21.5269C21.9288 21.5269 21.8512 21.5506 21.7852 21.5949C21.7193 21.6393 21.668 21.7023 21.638 21.7759C21.608 21.8495 21.6006 21.9303 21.6167 22.0081C21.6329 22.086 21.6718 22.1572 21.7286 22.2128L23.4693 23.9534C23.5061 23.9918 23.5503 24.0225 23.5991 24.0436C23.648 24.0647 23.7005 24.0759 23.7537 24.0764C23.807 24.077 23.8598 24.0669 23.909 24.0468C23.9583 24.0267 24.0031 23.9969 24.0407 23.9593C24.0783 23.9216 24.1081 23.8769 24.1282 23.8276C24.1483 23.7783 24.1584 23.7255 24.1579 23.6723C24.1573 23.6191 24.1462 23.5665 24.125 23.5177C24.1039 23.4688 24.0733 23.4247 24.0349 23.3878L22.2943 21.6472C22.257 21.6091 22.2125 21.5788 22.1634 21.5582C22.1143 21.5375 22.0616 21.5269 22.0083 21.5269Z" fill="#6F6F6F"/>
<path fill-rule="evenodd" clip-rule="evenodd" d="M15.5703 23.9816C15.4645 23.9832 15.3637 24.0268 15.2899 24.1026C15.2161 24.1784 15.1753 24.2804 15.1766 24.3863V26.8472C15.1758 26.9002 15.1856 26.9528 15.2054 27.002C15.2251 27.0512 15.2545 27.096 15.2917 27.1337C15.3289 27.1715 15.3733 27.2014 15.4222 27.2219C15.4711 27.2424 15.5235 27.2529 15.5766 27.2529C15.6296 27.2529 15.682 27.2424 15.7309 27.2219C15.7799 27.2014 15.8242 27.1715 15.8614 27.1337C15.8986 27.096 15.928 27.0512 15.9477 27.002C15.9675 26.9528 15.9773 26.9002 15.9766 26.8472V24.3863C15.9772 24.3328 15.9671 24.2798 15.9469 24.2303C15.9267 24.1808 15.8967 24.1359 15.8589 24.0982C15.821 24.0604 15.7759 24.0307 15.7264 24.0107C15.6768 23.9906 15.6238 23.9807 15.5703 23.9816Z" fill="#FFCF60"/>
<path fill-rule="evenodd" clip-rule="evenodd" d="M15.5703 4.7472C15.5178 4.74801 15.4659 4.75917 15.4177 4.78003C15.3695 4.80089 15.3259 4.83104 15.2893 4.86877C15.2527 4.90649 15.224 4.95105 15.2046 4.99989C15.1853 5.04874 15.1757 5.10092 15.1766 5.15345V7.61282C15.1758 7.66583 15.1856 7.71846 15.2054 7.76764C15.2251 7.81683 15.2545 7.8616 15.2917 7.89934C15.3289 7.93709 15.3733 7.96707 15.4222 7.98753C15.4711 8.00799 15.5236 8.01852 15.5766 8.01852C15.6296 8.01852 15.6821 8.00799 15.731 7.98753C15.7799 7.96707 15.8242 7.93709 15.8614 7.89934C15.8986 7.8616 15.928 7.81683 15.9478 7.76764C15.9675 7.71846 15.9773 7.66583 15.9766 7.61282V5.15345C15.9774 5.09986 15.9675 5.04667 15.9473 4.997C15.9272 4.94733 15.8973 4.9022 15.8594 4.86431C15.8216 4.82642 15.7764 4.79653 15.7268 4.77641C15.6771 4.75629 15.6239 4.74636 15.5703 4.7472Z" fill="#FFCF60"/>
<path d="M21.3516 16.0003C21.3516 12.8153 18.7616 10.2253 15.5766 10.2253C12.3916 10.2253 9.80005 12.8154 9.80005 16.0003C9.80005 19.1853 12.3916 21.7753 15.5766 21.7753C18.7616 21.7753 21.3516 19.1853 21.3516 16.0003ZM20.5516 16.0003C20.5516 18.753 18.3292 20.9753 15.5766 20.9753C12.824 20.9753 10.6 18.753 10.6 16.0003C10.6 13.2477 12.824 11.0253 15.5766 11.0253C18.3292 11.0253 20.5516 13.2477 20.5516 16.0003Z" fill="#FFCF60"/>
<path fill-rule="evenodd" clip-rule="evenodd" d="M4.72966 15.6003C4.67666 15.5996 4.62404 15.6094 4.57485 15.6291C4.52567 15.6489 4.48089 15.6782 4.44314 15.7155C4.40539 15.7527 4.37543 15.797 4.35497 15.8459C4.33451 15.8948 4.32397 15.9473 4.32397 16.0003C4.32397 16.0533 4.33451 16.1058 4.35497 16.1547C4.37543 16.2036 4.40539 16.248 4.44314 16.2852C4.48089 16.3224 4.52567 16.3517 4.57485 16.3715C4.62404 16.3913 4.67666 16.4011 4.72966 16.4003H7.18904C7.24204 16.4011 7.29466 16.3913 7.34385 16.3715C7.39303 16.3517 7.4378 16.3224 7.47555 16.2852C7.5133 16.248 7.54327 16.2036 7.56373 16.1547C7.58419 16.1058 7.59473 16.0533 7.59473 16.0003C7.59473 15.9473 7.58419 15.8948 7.56373 15.8459C7.54327 15.797 7.5133 15.7527 7.47555 15.7155C7.4378 15.6782 7.39303 15.6489 7.34385 15.6291C7.29466 15.6094 7.24204 15.5996 7.18904 15.6003H4.72966Z" fill="#FFCF60"/>
<path fill-rule="evenodd" clip-rule="evenodd" d="M23.9626 15.6003C23.9096 15.5996 23.857 15.6094 23.8078 15.6291C23.7586 15.6489 23.7138 15.6782 23.676 15.7155C23.6383 15.7527 23.6083 15.797 23.5879 15.8459C23.5674 15.8948 23.5569 15.9473 23.5569 16.0003C23.5569 16.0533 23.5674 16.1058 23.5879 16.1547C23.6083 16.2036 23.6383 16.248 23.676 16.2852C23.7138 16.3224 23.7586 16.3517 23.8078 16.3715C23.857 16.3913 23.9096 16.4011 23.9626 16.4003H26.4235C26.4765 16.4011 26.5291 16.3913 26.5783 16.3715C26.6275 16.3517 26.6723 16.3224 26.71 16.2852C26.7478 16.248 26.7778 16.2036 26.7982 16.1547C26.8187 16.1058 26.8292 16.0533 26.8292 16.0003C26.8292 15.9473 26.8187 15.8948 26.7982 15.8459C26.7778 15.797 26.7478 15.7527 26.71 15.7155C26.6723 15.6782 26.6275 15.6489 26.5783 15.6291C26.5291 15.6094 26.4765 15.5996 26.4235 15.6003H23.9626Z" fill="#FFCF60"/>
<path fill-rule="evenodd" clip-rule="evenodd" d="M9.63756 21.5269C9.53375 21.5298 9.43513 21.5729 9.36256 21.6472L7.62349 23.3878C7.5851 23.4247 7.55444 23.4688 7.53332 23.5177C7.5122 23.5665 7.50105 23.6191 7.50051 23.6723C7.49997 23.7256 7.51004 23.7784 7.53016 23.8276C7.55028 23.8769 7.58003 23.9217 7.61766 23.9593C7.65529 23.9969 7.70005 24.0267 7.74933 24.0468C7.7986 24.0669 7.85139 24.077 7.90461 24.0764C7.95783 24.0759 8.01041 24.0648 8.05926 24.0436C8.10811 24.0225 8.15226 23.9919 8.18912 23.9535L9.92818 22.2128C9.9857 22.1566 10.0249 22.0843 10.0408 22.0055C10.0566 21.9266 10.0482 21.8448 10.0169 21.7707C9.98549 21.6967 9.93251 21.6338 9.86484 21.5903C9.79717 21.5468 9.71797 21.5247 9.63756 21.5269Z" fill="#FFCF60"/>
<path fill-rule="evenodd" clip-rule="evenodd" d="M23.239 7.92689C23.1352 7.92978 23.0366 7.97293 22.964 8.04721L21.2234 9.78627C21.185 9.82313 21.1543 9.86727 21.1332 9.91613C21.1121 9.96498 21.1009 10.0175 21.1004 10.0708C21.0998 10.124 21.1099 10.1768 21.13 10.2261C21.1501 10.2753 21.1799 10.3201 21.2175 10.3577C21.2552 10.3954 21.2999 10.4251 21.3492 10.4452C21.3985 10.4653 21.4513 10.4754 21.5045 10.4749C21.5577 10.4743 21.6103 10.4632 21.6591 10.4421C21.708 10.4209 21.7521 10.3903 21.789 10.3519L23.5296 8.61283C23.5871 8.5566 23.6264 8.48433 23.6422 8.40546C23.658 8.32659 23.6497 8.24478 23.6183 8.17072C23.5869 8.09665 23.5339 8.03376 23.4663 7.99026C23.3986 7.94676 23.3194 7.92469 23.239 7.92689Z" fill="#FFCF60"/>
<path d="M19.6601 20.0846C21.9122 17.8325 21.9133 14.1685 19.6608 11.9164C17.4087 9.66426 13.7437 9.66427 11.4916 11.9164C9.23943 14.1685 9.24054 17.8325 11.4924 20.0846C13.7445 22.3367 17.4079 22.3367 19.6601 20.0846Z" fill="#FFCF60"/>
<path fill-rule="evenodd" clip-rule="evenodd" d="M7.90143 7.92532C7.82176 7.92534 7.7439 7.94914 7.67784 7.99368C7.61179 8.03823 7.56054 8.10148 7.53066 8.17534C7.50078 8.24919 7.49364 8.33029 7.51014 8.40823C7.52665 8.48618 7.56605 8.55742 7.6233 8.61282L9.36236 10.3519C9.39922 10.3903 9.44337 10.4209 9.49222 10.442C9.54108 10.4632 9.59364 10.4743 9.64686 10.4749C9.70008 10.4754 9.75287 10.4653 9.80215 10.4452C9.85142 10.4251 9.89619 10.3954 9.93382 10.3577C9.97146 10.3201 10.0012 10.2753 10.0213 10.226C10.0414 10.1768 10.0515 10.124 10.051 10.0708C10.0504 10.0175 10.0393 9.96497 10.0182 9.91612C9.99703 9.86727 9.96638 9.82312 9.92799 9.78626L8.18893 8.0472C8.15163 8.00865 8.10694 7.97799 8.05755 7.95705C8.00817 7.93611 7.95507 7.92532 7.90143 7.92532Z" fill="#FFCF60"/>
<path fill-rule="evenodd" clip-rule="evenodd" d="M21.5032 21.5269C21.4237 21.5269 21.346 21.5506 21.2801 21.595C21.2141 21.6393 21.1629 21.7023 21.1329 21.7759C21.1029 21.8495 21.0955 21.9303 21.1116 22.0082C21.1278 22.086 21.1667 22.1572 21.2235 22.2128L22.9641 23.9534C23.001 23.9918 23.0451 24.0225 23.094 24.0436C23.1428 24.0647 23.1954 24.0759 23.2486 24.0764C23.3018 24.077 23.3546 24.0669 23.4039 24.0468C23.4532 24.0267 23.498 23.9969 23.5356 23.9593C23.5732 23.9217 23.603 23.8769 23.6231 23.8276C23.6432 23.7783 23.6533 23.7256 23.6527 23.6723C23.6522 23.6191 23.641 23.5665 23.6199 23.5177C23.5988 23.4688 23.5681 23.4247 23.5298 23.3878L21.7891 21.6472C21.7519 21.6091 21.7074 21.5789 21.6583 21.5582C21.6092 21.5375 21.5565 21.5269 21.5032 21.5269Z" fill="#FFCF60"/>
</svg>
