<svg width="152" height="152" viewBox="0 0 152 152" fill="none" xmlns="http://www.w3.org/2000/svg">
<path fill-rule="evenodd" clip-rule="evenodd" d="M51.9575 11.7453C51.4563 11.7512 50.978 11.9559 50.6277 12.3145C50.2775 12.673 50.084 13.156 50.0899 13.6572V23.0027C50.0863 23.2531 50.1326 23.5017 50.226 23.7341C50.3194 23.9665 50.458 24.1779 50.6338 24.3563C50.8097 24.5346 51.0192 24.6762 51.2502 24.7729C51.4813 24.8696 51.7292 24.9193 51.9796 24.9193C52.2301 24.9193 52.478 24.8696 52.7091 24.7729C52.9401 24.6762 53.1496 24.5346 53.3255 24.3563C53.5013 24.1779 53.6399 23.9665 53.7333 23.7341C53.8267 23.5017 53.8729 23.2531 53.8694 23.0027V13.6572C53.8723 13.4053 53.8249 13.1553 53.7299 12.9221C53.6348 12.6888 53.4941 12.4768 53.316 12.2987C53.1378 12.1206 52.9259 11.9799 52.6926 11.8848C52.4593 11.7898 52.2094 11.7424 51.9575 11.7453Z" fill="#6F6F6F"/>
<path d="M74.2803 54.8408C74.2803 42.548 64.2724 32.5475 51.9796 32.5475C39.6869 32.5475 29.6863 42.548 29.6863 54.8408C29.6863 67.1335 39.6869 77.1415 51.9796 77.1415C64.2724 77.1415 74.2803 67.1335 74.2803 54.8408Z" fill="#6F6F6F"/>
<path fill-rule="evenodd" clip-rule="evenodd" d="M10.7961 52.951C10.5457 52.9474 10.297 52.9937 10.0647 53.0871C9.83228 53.1804 9.62077 53.3191 9.44244 53.4949C9.2641 53.6707 9.12249 53.8803 9.02583 54.1113C8.92917 54.3423 8.87939 54.5903 8.87939 54.8407C8.87939 55.0912 8.92917 55.3391 9.02583 55.5702C9.12249 55.8012 9.2641 56.0107 9.44244 56.1865C9.62077 56.3624 9.83228 56.501 10.0647 56.5944C10.297 56.6878 10.5457 56.734 10.7961 56.7305H20.1415C20.392 56.734 20.6406 56.6878 20.873 56.5944C21.1054 56.501 21.3169 56.3624 21.4952 56.1865C21.6735 56.0107 21.8151 55.8012 21.9118 55.5702C22.0085 55.3391 22.0582 55.0912 22.0582 54.8407C22.0582 54.5903 22.0085 54.3423 21.9118 54.1113C21.8151 53.8803 21.6735 53.6707 21.4952 53.4949C21.3169 53.3191 21.1054 53.1804 20.873 53.0871C20.6406 52.9937 20.392 52.9474 20.1415 52.951H10.7961Z" fill="#6F6F6F"/>
<path fill-rule="evenodd" clip-rule="evenodd" d="M83.8251 52.951C83.5747 52.9474 83.3261 52.9937 83.0937 53.0871C82.8613 53.1804 82.6498 53.3191 82.4715 53.4949C82.2932 53.6707 82.1515 53.8803 82.0549 54.1113C81.9582 54.3423 81.9084 54.5903 81.9084 54.8407C81.9084 55.0912 81.9582 55.3391 82.0549 55.5702C82.1515 55.8012 82.2932 56.0107 82.4715 56.1865C82.6498 56.3624 82.8613 56.501 83.0937 56.5944C83.3261 56.6878 83.5747 56.734 83.8251 56.7305H93.1632C93.4136 56.734 93.6623 56.6878 93.8946 56.5944C94.127 56.501 94.3385 56.3624 94.5169 56.1865C94.6952 56.0107 94.8368 55.8012 94.9335 55.5702C95.0301 55.3391 95.0799 55.0912 95.0799 54.8407C95.0799 54.5903 95.0301 54.3423 94.9335 54.1113C94.8368 53.8803 94.6952 53.6707 94.5169 53.4949C94.3385 53.3191 94.127 53.1804 93.8946 53.0871C93.6623 52.9937 93.4136 52.9474 93.1632 52.951H83.8251Z" fill="#6F6F6F"/>
<path fill-rule="evenodd" clip-rule="evenodd" d="M29.428 75.451C28.9375 75.4646 28.4716 75.6685 28.1288 76.0194L21.522 82.6262C21.3465 82.8021 21.2074 83.0109 21.1126 83.2406C21.0178 83.4703 20.9692 83.7165 20.9695 83.965C20.9698 84.2135 21.0191 84.4595 21.1145 84.6889C21.2099 84.9184 21.3496 85.1268 21.5255 85.3022C21.7015 85.4777 21.9103 85.6168 22.14 85.7116C22.3697 85.8064 22.6159 85.855 22.8644 85.8546C23.1129 85.8543 23.3589 85.8049 23.5883 85.7095C23.8177 85.6141 24.0261 85.4744 24.2016 85.2984L30.801 78.6916C31.0728 78.426 31.2581 78.0845 31.3328 77.7119C31.4076 77.3393 31.3683 76.9528 31.22 76.6029C31.0718 76.253 30.8215 75.9559 30.5018 75.7504C30.1821 75.5449 29.8079 75.4406 29.428 75.451Z" fill="#6F6F6F"/>
<path fill-rule="evenodd" clip-rule="evenodd" d="M81.0643 23.8146C80.5739 23.8283 80.108 24.0321 79.7651 24.383L73.1583 30.9898C72.9828 31.1658 72.8437 31.3746 72.749 31.6043C72.6542 31.834 72.6056 32.0801 72.6059 32.3286C72.6063 32.577 72.6555 32.823 72.751 33.0525C72.8464 33.2819 72.986 33.4903 73.162 33.6658C73.3379 33.8412 73.5467 33.9803 73.7764 34.0751C74.0061 34.1699 74.2522 34.2185 74.5007 34.2181C74.7492 34.2178 74.9952 34.1685 75.2246 34.0731C75.454 33.9777 75.6625 33.838 75.8379 33.6621L82.4373 27.0553C82.7091 26.7896 82.8944 26.4482 82.9692 26.0756C83.0439 25.703 83.0046 25.3165 82.8563 24.9666C82.7081 24.6166 82.4578 24.3195 82.1381 24.114C81.8184 23.9085 81.4442 23.8042 81.0643 23.8146Z" fill="#6F6F6F"/>
<path fill-rule="evenodd" clip-rule="evenodd" d="M22.8433 23.8146C22.4678 23.8148 22.1009 23.9267 21.7893 24.1363C21.4777 24.3458 21.2356 24.6434 21.0938 24.9911C20.952 25.3387 20.917 25.7208 20.9933 26.0884C21.0696 26.4561 21.2536 26.7927 21.522 27.0553L28.1288 33.6621C28.3029 33.8435 28.5115 33.9883 28.7423 34.088C28.9731 34.1878 29.2214 34.2405 29.4728 34.2431C29.7243 34.2457 29.9737 34.198 30.2065 34.103C30.4392 34.008 30.6507 33.8674 30.8285 33.6896C31.0063 33.5118 31.1468 33.3004 31.2419 33.0676C31.3369 32.8348 31.3845 32.5854 31.382 32.334C31.3794 32.0825 31.3267 31.8342 31.2269 31.6034C31.1272 31.3726 30.9824 31.164 30.801 30.9899L24.2016 24.3831C24.0247 24.2022 23.8134 24.0588 23.5801 23.9612C23.3468 23.8635 23.0962 23.8137 22.8433 23.8146Z" fill="#6F6F6F"/>
<path d="M98.6959 57.7995C86.042 57.807 75.3525 66.372 71.8554 78.3064C67.9361 74.9939 63.1762 72.807 57.9848 72.7995C46.5278 72.7995 37.3615 81.7436 36.437 92.9668C23.9615 93.4311 13.9518 103.527 13.9518 116.116C13.9518 129.002 24.3856 139.436 37.2712 139.436H122.982C135.868 139.436 146.302 129.002 146.302 116.116C146.302 104.221 137.302 94.7338 125.795 93.299C126.424 90.9455 127.005 88.5658 127.013 86.1238C127.013 86.1213 127.013 86.12 127.013 86.1162C127.013 70.4979 114.314 57.7988 98.6959 57.7995Z" fill="#6F6F6F"/>
<path fill-rule="evenodd" clip-rule="evenodd" d="M47.9575 11.7454C47.4563 11.7513 46.978 11.956 46.6277 12.3146C46.2775 12.6731 46.084 13.1561 46.0899 13.6573V23.0028C46.0863 23.2532 46.1326 23.5018 46.226 23.7342C46.3194 23.9665 46.458 24.178 46.6338 24.3564C46.8097 24.5347 47.0192 24.6763 47.2502 24.773C47.4813 24.8696 47.7292 24.9194 47.9796 24.9194C48.2301 24.9194 48.478 24.8696 48.7091 24.773C48.9401 24.6763 49.1496 24.5347 49.3255 24.3564C49.5013 24.178 49.6399 23.9665 49.7333 23.7342C49.8267 23.5018 49.8729 23.2532 49.8694 23.0028V13.6573C49.8723 13.4054 49.8249 13.1554 49.7299 12.9221C49.6348 12.6889 49.4941 12.4769 49.316 12.2988C49.1378 12.1207 48.9259 11.98 48.6926 11.8849C48.4593 11.7899 48.2094 11.7425 47.9575 11.7454Z" fill="#FFCF60"/>
<path d="M70.2803 54.8408C70.2803 42.5481 60.2724 32.5475 47.9796 32.5475C35.6869 32.5475 25.6863 42.5481 25.6863 54.8408C25.6863 67.1336 35.6869 77.1415 47.9796 77.1415C60.2724 77.1415 70.2803 67.1336 70.2803 54.8408Z" fill="#FFCF60"/>
<path fill-rule="evenodd" clip-rule="evenodd" d="M6.79608 52.9511C6.54566 52.9475 6.29704 52.9938 6.06466 53.0872C5.83228 53.1805 5.62077 53.3192 5.44244 53.495C5.2641 53.6708 5.12249 53.8804 5.02583 54.1114C4.92917 54.3424 4.87939 54.5904 4.87939 54.8408C4.87939 55.0913 4.92917 55.3392 5.02583 55.5702C5.12249 55.8013 5.2641 56.0108 5.44244 56.1866C5.62077 56.3625 5.83228 56.5011 6.06466 56.5945C6.29704 56.6879 6.54566 56.7341 6.79608 56.7306H16.1415C16.392 56.7341 16.6406 56.6879 16.873 56.5945C17.1054 56.5011 17.3169 56.3625 17.4952 56.1866C17.6735 56.0108 17.8151 55.8013 17.9118 55.5702C18.0085 55.3392 18.0582 55.0913 18.0582 54.8408C18.0582 54.5904 18.0085 54.3424 17.9118 54.1114C17.8151 53.8804 17.6735 53.6708 17.4952 53.495C17.3169 53.3192 17.1054 53.1805 16.873 53.0872C16.6406 52.9938 16.392 52.9475 16.1415 52.9511H6.79608Z" fill="#FFCF60"/>
<path fill-rule="evenodd" clip-rule="evenodd" d="M79.8251 52.9511C79.5747 52.9475 79.3261 52.9938 79.0937 53.0872C78.8613 53.1805 78.6498 53.3192 78.4715 53.495C78.2931 53.6708 78.1515 53.8804 78.0549 54.1114C77.9582 54.3424 77.9084 54.5904 77.9084 54.8408C77.9084 55.0913 77.9582 55.3392 78.0549 55.5702C78.1515 55.8013 78.2931 56.0108 78.4715 56.1866C78.6498 56.3625 78.8613 56.5011 79.0937 56.5945C79.3261 56.6879 79.5747 56.7341 79.8251 56.7306H89.1632C89.4136 56.7341 89.6622 56.6879 89.8946 56.5945C90.127 56.5011 90.3385 56.3625 90.5168 56.1866C90.6952 56.0108 90.8368 55.8013 90.9334 55.5702C91.0301 55.3392 91.0799 55.0913 91.0799 54.8408C91.0799 54.5904 91.0301 54.3424 90.9334 54.1114C90.8368 53.8804 90.6952 53.6708 90.5168 53.495C90.3385 53.3192 90.127 53.1805 89.8946 53.0872C89.6622 52.9938 89.4136 52.9475 89.1632 52.9511H79.8251Z" fill="#FFCF60"/>
<path fill-rule="evenodd" clip-rule="evenodd" d="M25.428 75.4511C24.9375 75.4647 24.4716 75.6686 24.1288 76.0195L17.522 82.6263C17.3465 82.8022 17.2074 83.011 17.1126 83.2407C17.0178 83.4704 16.9692 83.7166 16.9695 83.9651C16.9698 84.2136 17.0191 84.4596 17.1145 84.689C17.2099 84.9185 17.3496 85.1269 17.5255 85.3023C17.7015 85.4778 17.9103 85.6169 18.14 85.7117C18.3697 85.8065 18.6159 85.8551 18.8644 85.8547C19.1129 85.8544 19.3589 85.805 19.5883 85.7096C19.8177 85.6142 20.0261 85.4745 20.2016 85.2985L26.801 78.6917C27.0728 78.4261 27.2581 78.0846 27.3328 77.712C27.4076 77.3394 27.3683 76.9529 27.22 76.603C27.0718 76.2531 26.8215 75.956 26.5018 75.7505C26.1821 75.545 25.8079 75.4407 25.428 75.4511Z" fill="#FFCF60"/>
<path fill-rule="evenodd" clip-rule="evenodd" d="M77.0643 23.8147C76.5739 23.8284 76.108 24.0322 75.7651 24.3831L69.1583 30.9899C68.9828 31.1659 68.8437 31.3747 68.749 31.6044C68.6542 31.8341 68.6056 32.0802 68.6059 32.3287C68.6063 32.5771 68.6555 32.8231 68.751 33.0526C68.8464 33.282 68.986 33.4904 69.162 33.6659C69.3379 33.8413 69.5467 33.9804 69.7764 34.0752C70.0061 34.17 70.2522 34.2186 70.5007 34.2182C70.7492 34.2179 70.9952 34.1686 71.2246 34.0732C71.454 33.9778 71.6625 33.8381 71.8379 33.6622L78.4373 27.0554C78.7091 26.7897 78.8944 26.4483 78.9692 26.0757C79.0439 25.7031 79.0046 25.3166 78.8563 24.9667C78.7081 24.6167 78.4578 24.3196 78.1381 24.1141C77.8184 23.9086 77.4442 23.8043 77.0643 23.8147Z" fill="#FFCF60"/>
<path fill-rule="evenodd" clip-rule="evenodd" d="M18.8433 23.8147C18.4678 23.8149 18.1009 23.9268 17.7893 24.1363C17.4777 24.3459 17.2356 24.6434 17.0938 24.9911C16.952 25.3388 16.917 25.7209 16.9933 26.0885C17.0696 26.4562 17.2536 26.7928 17.522 27.0554L24.1288 33.6622C24.3029 33.8436 24.5115 33.9884 24.7423 34.0881C24.9731 34.1879 25.2214 34.2406 25.4728 34.2432C25.7243 34.2458 25.9737 34.1981 26.2065 34.1031C26.4392 34.008 26.6507 33.8675 26.8285 33.6897C27.0063 33.5119 27.1468 33.3005 27.2419 33.0677C27.3369 32.8349 27.3845 32.5855 27.382 32.334C27.3794 32.0826 27.3267 31.8343 27.2269 31.6035C27.1272 31.3727 26.9824 31.1641 26.801 30.99L20.2016 24.3831C20.0247 24.2023 19.8134 24.0589 19.5801 23.9613C19.3468 23.8636 19.0962 23.8138 18.8433 23.8147Z" fill="#FFCF60"/>
<path d="M94.6959 57.7995C82.042 57.8071 71.3525 66.372 67.8554 78.3064C63.9361 74.9939 59.1762 72.807 53.9848 72.7996C42.5278 72.7996 33.3615 81.7437 32.437 92.9669C19.9615 93.4311 9.95181 103.527 9.95181 116.116C9.95181 129.002 20.3856 139.436 33.2712 139.436H118.982C131.868 139.436 142.302 129.002 142.302 116.116C142.302 104.221 133.302 94.7338 121.795 93.2991C122.424 90.9456 123.005 88.5659 123.013 86.1239C123.013 86.1214 123.013 86.1201 123.013 86.1163C123.013 70.498 110.314 57.7989 94.6959 57.7995Z" fill="white"/>
</svg>
