<svg width="33" height="32" viewBox="0 0 33 32" fill="none" xmlns="http://www.w3.org/2000/svg">
<g clip-path="url(#clip0_1_142)">
<path d="M19.8104 22.4061V3.20168C19.8104 1.38888 18.4238 0 16.614 0C14.8042 0 13.4177 1.49486 13.4177 3.20168V22.4006C12.1369 23.36 11.2905 24.9608 11.2905 26.6676C11.2905 29.6518 13.6348 32.0001 16.614 32.0001C19.5932 32.0001 21.9375 29.6518 21.9375 26.6676C21.9375 24.9608 21.0856 23.3656 19.8104 22.4061ZM16.614 30.9402C14.2696 30.9402 12.3541 29.0215 12.3541 26.6732C12.3541 25.0724 13.2061 23.689 14.4812 22.9417V3.20168C14.4812 2.03033 15.439 1.07094 16.6084 1.07094C17.7778 1.07094 18.7356 2.03033 18.7356 3.20168V22.936C20.0163 23.6834 20.8628 25.0668 20.8628 26.6676C20.874 29.0159 18.9583 30.9402 16.614 30.9402Z" fill="#F5F5F5"/>
<path d="M17.6775 23.6835C17.6775 23.5775 17.6775 23.5775 17.6775 23.4716V18.1391C17.6775 17.4976 17.2543 17.0737 16.614 17.0737C15.9736 17.0737 15.5504 17.4976 15.5504 18.1391V23.4716C15.5504 23.5775 15.5504 23.5775 15.5504 23.6835C14.2696 24.113 13.4232 25.2844 13.4232 26.6676C13.4232 28.4804 14.8098 29.8693 16.6196 29.8693C18.4293 29.8693 19.8159 28.4804 19.8159 26.6676C19.8104 25.2844 18.9583 24.113 17.6775 23.6835Z" fill="#F5F5F5"/>
</g>
<defs>
<clipPath id="clip0_1_142">
<rect width="31.9468" height="32" fill="white" transform="translate(0.640594)"/>
</clipPath>
</defs>
</svg>
