<svg width="32" height="32" viewBox="0 0 32 32" fill="none" xmlns="http://www.w3.org/2000/svg">
<path d="M23.7026 18.9683H7.10767V20.1519H23.7026C24.4152 20.1519 24.8861 20.6229 24.8861 21.3355C24.8861 22.0481 24.4152 22.519 23.7026 22.519C22.9899 22.519 22.519 22.048 22.519 21.3354H21.3354C21.3354 22.6367 22.4012 23.7025 23.7025 23.7025C25.0038 23.7025 26.0696 22.6367 26.0696 21.3354C26.0696 20.034 25.0039 18.9683 23.7026 18.9683Z" fill="#F5F5F5"/>
<path d="M21.3291 11.8544C21.3291 9.84045 19.7863 8.29745 17.7723 8.29745C15.7584 8.29745 14.2153 9.84045 14.2153 11.8544H15.4051C15.4051 10.5531 16.471 9.48723 17.7723 9.48723C19.0736 9.48723 20.1394 10.5531 20.1394 11.8544C20.1394 13.1557 19.0736 14.2215 17.7723 14.2215H3.55693V15.4113H17.7785C19.7924 15.4113 21.3291 13.8683 21.3291 11.8544Z" fill="#F5F5F5"/>
<path d="M27.2534 8.29745C24.6444 8.29745 22.5128 10.4291 22.5128 13.038H23.6964C23.6964 11.024 25.2394 9.48103 27.2534 9.48103C29.2673 9.48103 30.8102 11.024 30.8102 13.038C30.8102 15.0519 29.2673 16.5949 27.2534 16.5949H0V17.7785H27.2595C29.8683 17.7785 32 15.6468 32 13.038C32 10.4291 29.8621 8.29745 27.2534 8.29745Z" fill="#F5F5F5"/>
</svg>
